<?xml version="1.0" encoding="UTF-8"?>
<svg xmlns="http://www.w3.org/2000/svg" xmlns:xlink="http://www.w3.org/1999/xlink" width="44.18183" height="45.4908" viewBox="0 0 44.18183 45.4908">
<path fill-rule="evenodd" fill="rgb(13.725281%, 9.803772%, 8.627319%)" fill-opacity="1" d="M 22.148438 0.152344 C 34.199219 0.152344 44.027344 10.273438 44.027344 22.679688 C 44.027344 35.089844 34.199219 45.210938 22.148438 45.210938 C 10.097656 45.210938 0.265625 35.089844 0.265625 22.679688 C 0.265625 10.273438 10.097656 0.152344 22.148438 0.152344 Z M 22.148438 1.683594 C 33.378906 1.683594 42.539062 11.117188 42.539062 22.679688 C 42.539062 34.246094 33.378906 43.675781 22.148438 43.675781 C 10.917969 43.675781 1.753906 34.246094 1.753906 22.679688 C 1.753906 11.117188 10.917969 1.683594 22.148438 1.683594 "/>
<path fill="none" stroke-width="0.8504" stroke-linecap="butt" stroke-linejoin="miter" stroke="rgb(13.725281%, 9.803772%, 8.627319%)" stroke-opacity="1" stroke-miterlimit="22.925586" d="M 29.566333 65.893506 C 37.617114 65.893506 44.140551 59.174756 44.140551 50.885694 C 44.140551 42.596631 37.617114 35.877881 29.566333 35.877881 C 21.515551 35.877881 14.992114 42.596631 14.992114 50.885694 C 14.992114 59.174756 21.515551 65.893506 29.566333 65.893506 Z M 29.566333 65.893506 " transform="matrix(1, 0, 0, -1, -7.52727, 73.5771)"/>
<path fill-rule="evenodd" fill="rgb(13.725281%, 9.803772%, 8.627319%)" fill-opacity="1" d="M 35.101562 13.832031 C 35.101562 13.832031 36.039062 14.144531 36.125 14.753906 C 36.125 14.753906 35.585938 15.527344 35.320312 14.808594 C 35.050781 14.089844 35.101562 13.832031 35.101562 13.832031 Z M 37.792969 10.882812 C 37.792969 10.882812 37.445312 11.382812 37.90625 11.488281 L 38.496094 11.675781 C 38.496094 11.675781 38.707031 11.601562 38.839844 11.914062 C 38.90625 11.9375 39.507812 12.246094 39.507812 12.246094 C 39.507812 12.246094 39.921875 12.679688 39.449219 12.859375 C 38.972656 13.035156 37.695312 12.9375 37 12.59375 C 37 12.59375 37.808594 13.046875 37.480469 13.273438 C 37.039062 13.496094 36.554688 13.460938 36.679688 13.820312 C 36.679688 13.820312 36.898438 14.394531 36.601562 14.703125 C 36.601562 14.703125 36.960938 15.257812 36.742188 15.964844 L 36.433594 15.808594 C 36.433594 15.808594 36.605469 15.523438 36.335938 15.023438 C 36.335938 15.023438 35.457031 16.070312 35.070312 15.265625 C 34.917969 14.25 34.769531 13.496094 34.988281 13.101562 C 34.988281 13.101562 35.769531 12.953125 36.476562 14.382812 C 36.476562 14.382812 36.648438 14.246094 36.277344 13.445312 C 36.277344 13.445312 36.117188 13.261719 36.351562 13.183594 L 36.917969 12.96875 C 36.917969 12.96875 35.960938 12.800781 36.25 12.441406 L 36.546875 12.226562 C 36.546875 12.226562 38.074219 12.691406 39.238281 12.402344 C 39.238281 12.402344 38.972656 12.191406 38.824219 12.21875 C 38.824219 12.21875 38.605469 12.613281 38.441406 12.105469 C 38.441406 12.105469 38.386719 11.984375 38.445312 11.898438 C 38.445312 11.898438 36.902344 11.777344 37.355469 11.269531 C 37.355469 11.269531 37.558594 10.960938 37.792969 10.882812 "/>
<path fill-rule="evenodd" fill="rgb(13.725281%, 9.803772%, 8.627319%)" fill-opacity="1" d="M 30.351562 6.433594 C 30.351562 6.433594 30.550781 7.253906 30.171875 7.632812 C 30.171875 7.632812 30.644531 7.625 30.859375 7.085938 C 31.078125 6.550781 30.484375 6.457031 30.351562 6.433594 Z M 29.21875 4.78125 C 29.21875 4.78125 28.914062 5.382812 29.351562 5.09375 L 29.871094 4.773438 L 29.769531 4.386719 C 29.769531 4.386719 29.859375 4.035156 30.121094 4.339844 L 30.363281 4.640625 L 30.777344 4.394531 L 30.980469 4.671875 L 30.257812 5.148438 C 30.257812 5.148438 30.207031 5.71875 28.914062 6.828125 C 28.914062 6.828125 28.167969 7.621094 27.691406 7.484375 L 27.714844 7.363281 C 27.714844 7.363281 28.417969 7.265625 29.296875 5.679688 C 29.296875 5.679688 28.535156 5.84375 29.003906 4.855469 C 29.003906 4.855469 29.113281 4.570312 29.21875 4.78125 "/>
<path fill-rule="evenodd" fill="rgb(13.725281%, 9.803772%, 8.627319%)" fill-opacity="1" d="M 16.375 6.746094 C 16.375 6.746094 17.339844 6.558594 17.21875 7.347656 L 17.078125 7.503906 Z M 14.8125 4.808594 C 14.8125 4.808594 15.347656 4.949219 15.640625 4.300781 C 15.640625 4.300781 16.207031 2.898438 16.207031 2.582031 C 16.207031 2.582031 16.511719 2.535156 16.453125 3.195312 L 16.175781 3.9375 C 16.175781 3.9375 16.910156 3.480469 16.878906 3.039062 C 16.878906 3.039062 17.402344 2.976562 17.003906 3.890625 L 15.640625 5.105469 L 15.410156 6.335938 L 15.777344 5.992188 C 15.777344 5.992188 15.761719 5.058594 16.066406 4.871094 C 16.066406 4.871094 16.695312 4.808594 16.574219 5.691406 C 16.574219 5.691406 16.375 5.992188 16.25 6.148438 L 16.296875 8.011719 L 15.5625 7.535156 L 15.148438 8.246094 L 14.75 7.789062 C 14.75 7.789062 15.699219 7.269531 15.761719 6.777344 L 15.746094 6.496094 L 15.285156 6.921875 L 14.886719 6.589844 L 15.332031 5.3125 C 15.332031 5.3125 14.6875 5.027344 14.8125 4.808594 "/>
<path fill-rule="evenodd" fill="rgb(13.725281%, 9.803772%, 8.627319%)" fill-opacity="1" d="M 7.882812 13.277344 L 7.398438 11.996094 L 8.222656 11.953125 C 8.222656 11.953125 8.105469 12.972656 7.882812 13.277344 Z M 6.84375 15.222656 L 6.933594 12.867188 L 7.09375 12.917969 C 7.09375 12.917969 7.597656 14.570312 7.128906 15.832031 L 6.476562 15.800781 C 6.476562 15.800781 6.117188 14.792969 5.84375 14.542969 C 5.84375 14.542969 6.242188 14 6.84375 15.222656 Z M 6.441406 13.167969 C 6.441406 13.167969 5.652344 11.914062 4.984375 11.671875 C 4.984375 11.671875 5.5625 11.257812 5.976562 11.882812 C 6.390625 12.511719 6.8125 12.902344 6.441406 13.167969 "/>
<path fill-rule="evenodd" fill="rgb(13.725281%, 9.803772%, 8.627319%)" fill-opacity="1" stroke-width="0.216" stroke-linecap="butt" stroke-linejoin="miter" stroke="rgb(13.725281%, 9.803772%, 8.627319%)" stroke-opacity="1" stroke-miterlimit="22.925586" d="M 19.390551 51.0771 L 23.499926 59.569288 L 26.253833 56.991163 L 29.843676 63.916944 L 32.960864 57.498975 L 34.468676 60.174756 L 39.511645 50.120069 L 37.58977 50.069288 L 34.574145 56.284131 L 33.792895 55.678663 L 35.925708 50.268506 L 33.585864 50.217725 L 29.894458 59.67085 L 25.421801 50.928663 L 23.499926 51.127881 L 25.265551 55.424756 L 24.175708 56.436475 L 21.523364 51.026319 C 21.523364 51.026319 19.347583 50.987256 19.390551 51.0771 Z M 19.390551 51.0771 " transform="matrix(1, 0, 0, -1, -7.52727, 73.5771)"/>
<path fill-rule="evenodd" fill="rgb(13.725281%, 9.803772%, 8.627319%)" fill-opacity="1" stroke-width="0.216" stroke-linecap="butt" stroke-linejoin="miter" stroke="rgb(13.725281%, 9.803772%, 8.627319%)" stroke-opacity="1" stroke-miterlimit="22.925586" d="M 26.031176 48.776319 C 26.425708 48.362256 27.15227 48.081006 27.984301 48.081006 C 28.27727 48.081006 28.562426 48.116163 28.820239 48.182569 L 28.820239 50.694288 L 27.429614 50.741163 L 27.609301 51.049756 L 27.597583 51.049756 L 28.507739 52.643506 L 17.285083 52.643506 L 17.285083 54.413038 L 29.55852 54.413038 L 29.605395 56.256788 L 30.812426 56.315381 L 30.812426 54.413038 L 32.148364 54.413038 L 31.238208 52.819288 L 40.671801 52.819288 L 40.671801 51.049756 L 31.667895 51.049756 L 31.718676 50.85835 L 31.831958 47.748975 C 31.925708 47.741163 32.023364 47.737256 32.12102 47.737256 C 32.992114 47.737256 33.749926 47.979444 34.128833 48.428663 L 34.476489 48.752881 C 34.867114 48.338819 35.706958 47.737256 36.538989 47.737256 C 37.406176 47.737256 38.167895 48.04585 38.542895 48.495069 L 38.722583 48.487256 C 39.117114 48.073194 39.843676 47.79585 40.675708 47.79585 C 41.546801 47.79585 42.304614 48.100538 42.679614 48.549756 C 42.878833 48.342725 42.99602 48.100538 42.99602 47.838819 C 42.99602 47.065381 41.976489 46.436475 40.730395 46.436475 C 39.828051 46.436475 39.046801 46.7646 38.68352 47.241163 C 38.33977 46.737256 37.531176 46.377881 36.593676 46.377881 C 35.519458 46.377881 34.613208 46.846631 34.382739 47.471631 C 34.156176 46.846631 33.249926 46.377881 32.175708 46.377881 C 31.132739 46.377881 30.253833 46.819288 29.992114 47.416944 C 29.597583 47.002881 28.867114 46.721631 28.038989 46.721631 C 27.062426 46.721631 26.222583 47.112256 25.910083 47.651319 C 25.722583 46.995069 24.792895 46.491163 23.679614 46.491163 C 22.722583 46.491163 21.90227 46.862256 21.570239 47.381788 C 21.18352 46.956006 20.445239 46.663038 19.597583 46.663038 C 18.351489 46.663038 17.335864 47.29585 17.335864 48.069288 C 17.335864 48.303663 17.425708 48.522413 17.58977 48.717725 C 17.984301 48.303663 18.710864 48.022413 19.542895 48.022413 C 20.386645 48.022413 21.128833 48.315381 21.515551 48.741163 C 21.847583 48.221631 22.667895 47.850538 23.624926 47.850538 C 24.816333 47.850538 25.203051 48.147413 26.031176 48.776319 Z M 16.160083 44.991163 L 42.99602 44.991163 L 42.499926 43.768506 L 16.65227 43.768506 Z M 16.160083 44.991163 " transform="matrix(1, 0, 0, -1, -7.52727, 73.5771)"/>
<path fill-rule="evenodd" fill="rgb(13.725281%, 9.803772%, 8.627319%)" fill-opacity="1" d="M 2.976562 24.234375 L 3.097656 24.59375 C 2.957031 24.648438 2.847656 24.71875 2.773438 24.808594 C 2.695312 24.894531 2.644531 25.015625 2.621094 25.164062 C 2.59375 25.3125 2.605469 25.472656 2.644531 25.640625 C 2.679688 25.789062 2.734375 25.914062 2.804688 26.015625 C 2.875 26.121094 2.957031 26.191406 3.042969 26.226562 C 3.132812 26.265625 3.222656 26.269531 3.308594 26.25 C 3.402344 26.226562 3.472656 26.179688 3.527344 26.105469 C 3.582031 26.035156 3.617188 25.933594 3.632812 25.796875 C 3.644531 25.710938 3.648438 25.523438 3.644531 25.234375 C 3.644531 24.945312 3.65625 24.742188 3.6875 24.617188 C 3.722656 24.457031 3.789062 24.328125 3.875 24.230469 C 3.964844 24.136719 4.078125 24.070312 4.210938 24.039062 C 4.355469 24 4.5 24.007812 4.644531 24.058594 C 4.792969 24.113281 4.917969 24.210938 5.023438 24.355469 C 5.128906 24.503906 5.203125 24.675781 5.253906 24.875 C 5.304688 25.09375 5.320312 25.296875 5.289062 25.480469 C 5.261719 25.667969 5.191406 25.820312 5.082031 25.945312 C 4.96875 26.070312 4.832031 26.15625 4.664062 26.207031 L 4.546875 25.839844 C 4.722656 25.773438 4.84375 25.667969 4.90625 25.527344 C 4.972656 25.386719 4.976562 25.203125 4.921875 24.976562 C 4.863281 24.742188 4.78125 24.578125 4.671875 24.492188 C 4.558594 24.40625 4.445312 24.375 4.324219 24.40625 C 4.222656 24.433594 4.148438 24.496094 4.097656 24.589844 C 4.050781 24.679688 4.03125 24.894531 4.039062 25.230469 C 4.042969 25.566406 4.035156 25.800781 4.011719 25.933594 C 3.976562 26.125 3.910156 26.277344 3.8125 26.390625 C 3.714844 26.5 3.585938 26.578125 3.433594 26.617188 C 3.28125 26.65625 3.125 26.648438 2.96875 26.59375 C 2.8125 26.539062 2.675781 26.433594 2.558594 26.285156 C 2.441406 26.136719 2.359375 25.957031 2.308594 25.746094 C 2.242188 25.476562 2.226562 25.242188 2.257812 25.042969 C 2.289062 24.84375 2.371094 24.671875 2.496094 24.527344 C 2.625 24.386719 2.785156 24.289062 2.976562 24.234375 Z M 2.820312 27.582031 L 5.566406 26.441406 L 5.710938 26.816406 L 4.585938 27.285156 L 5.160156 28.753906 L 6.289062 28.285156 L 6.433594 28.65625 L 3.6875 29.800781 L 3.542969 29.425781 L 4.835938 28.886719 L 4.257812 27.417969 L 2.964844 27.957031 Z M 3.855469 30.285156 L 6.992188 29.773438 L 7.203125 30.152344 L 5.242188 32.757812 L 5.019531 32.355469 L 5.625 31.589844 L 5.003906 30.484375 L 4.066406 30.65625 Z M 5.335938 30.421875 L 5.839844 31.316406 L 6.394531 30.617188 C 6.5625 30.40625 6.707031 30.238281 6.820312 30.113281 C 6.636719 30.179688 6.449219 30.230469 6.25 30.265625 Z M 5.492188 33.183594 L 7.792969 31.265625 L 8.046875 31.585938 L 7.21875 34.335938 L 9.023438 32.832031 L 9.261719 33.132812 L 6.960938 35.050781 L 6.707031 34.726562 L 7.535156 31.976562 L 5.726562 33.484375 Z M 9.324219 35.808594 L 9.5625 35.546875 L 10.480469 36.425781 L 9.730469 37.253906 C 9.484375 37.234375 9.261719 37.183594 9.058594 37.097656 C 8.855469 37.011719 8.675781 36.890625 8.519531 36.742188 C 8.304688 36.535156 8.15625 36.304688 8.066406 36.042969 C 7.976562 35.785156 7.96875 35.523438 8.039062 35.257812 C 8.113281 34.996094 8.246094 34.757812 8.445312 34.535156 C 8.640625 34.320312 8.871094 34.160156 9.128906 34.054688 C 9.386719 33.953125 9.640625 33.933594 9.890625 34.003906 C 10.136719 34.070312 10.367188 34.207031 10.585938 34.414062 C 10.742188 34.566406 10.859375 34.726562 10.9375 34.902344 C 11.015625 35.074219 11.050781 35.242188 11.039062 35.40625 C 11.027344 35.566406 10.96875 35.742188 10.871094 35.925781 L 10.546875 35.75 C 10.617188 35.605469 10.65625 35.480469 10.667969 35.367188 C 10.679688 35.257812 10.65625 35.136719 10.601562 35.011719 C 10.546875 34.890625 10.464844 34.773438 10.355469 34.667969 C 10.226562 34.542969 10.09375 34.453125 9.960938 34.402344 C 9.828125 34.351562 9.703125 34.332031 9.582031 34.34375 C 9.464844 34.355469 9.351562 34.382812 9.246094 34.433594 C 9.066406 34.519531 8.902344 34.640625 8.757812 34.800781 C 8.578125 35 8.460938 35.199219 8.40625 35.398438 C 8.351562 35.59375 8.359375 35.785156 8.425781 35.972656 C 8.496094 36.160156 8.601562 36.324219 8.742188 36.460938 C 8.867188 36.578125 9.011719 36.671875 9.171875 36.734375 C 9.335938 36.800781 9.472656 36.832031 9.585938 36.835938 L 9.960938 36.417969 Z M 10.027344 38.089844 L 11.597656 35.503906 L 12.460938 36.058594 C 12.65625 36.183594 12.796875 36.292969 12.886719 36.382812 C 13.007812 36.511719 13.09375 36.652344 13.140625 36.804688 C 13.203125 37.007812 13.214844 37.21875 13.171875 37.4375 C 13.125 37.660156 13.035156 37.886719 12.894531 38.117188 C 12.777344 38.3125 12.648438 38.472656 12.511719 38.59375 C 12.375 38.71875 12.242188 38.808594 12.113281 38.863281 C 11.980469 38.917969 11.859375 38.945312 11.742188 38.949219 C 11.625 38.953125 11.496094 38.933594 11.363281 38.886719 C 11.226562 38.839844 11.085938 38.769531 10.933594 38.671875 Z M 10.542969 37.996094 L 11.082031 38.339844 C 11.246094 38.449219 11.386719 38.515625 11.5 38.542969 C 11.613281 38.574219 11.714844 38.578125 11.804688 38.554688 C 11.933594 38.527344 12.0625 38.457031 12.1875 38.347656 C 12.316406 38.238281 12.4375 38.085938 12.554688 37.890625 C 12.71875 37.621094 12.804688 37.386719 12.804688 37.183594 C 12.808594 36.984375 12.761719 36.820312 12.667969 36.691406 C 12.601562 36.597656 12.46875 36.488281 12.269531 36.359375 L 11.742188 36.023438 Z M 13.179688 38.386719 C 13.378906 37.925781 13.65625 37.617188 14.011719 37.46875 C 14.363281 37.316406 14.730469 37.328125 15.113281 37.503906 C 15.363281 37.617188 15.5625 37.78125 15.710938 37.996094 C 15.855469 38.210938 15.933594 38.453125 15.945312 38.722656 C 15.957031 38.988281 15.898438 39.261719 15.78125 39.539062 C 15.65625 39.824219 15.492188 40.050781 15.285156 40.222656 C 15.078125 40.394531 14.847656 40.492188 14.597656 40.511719 C 14.34375 40.535156 14.101562 40.492188 13.867188 40.382812 C 13.609375 40.265625 13.410156 40.101562 13.265625 39.882812 C 13.117188 39.664062 13.042969 39.417969 13.035156 39.152344 C 13.023438 38.886719 13.074219 38.632812 13.179688 38.386719 Z M 13.546875 38.5625 C 13.398438 38.898438 13.375 39.203125 13.464844 39.476562 C 13.558594 39.75 13.734375 39.945312 14 40.066406 C 14.269531 40.191406 14.535156 40.195312 14.792969 40.082031 C 15.050781 39.964844 15.257812 39.726562 15.414062 39.371094 C 15.511719 39.144531 15.558594 38.929688 15.554688 38.726562 C 15.554688 38.523438 15.503906 38.339844 15.402344 38.183594 C 15.296875 38.023438 15.15625 37.902344 14.980469 37.820312 C 14.726562 37.707031 14.46875 37.695312 14.207031 37.789062 C 13.949219 37.886719 13.726562 38.144531 13.546875 38.5625 Z M 15.804688 41.191406 L 16.570312 38.246094 L 16.960938 38.355469 L 17.859375 41.082031 L 18.460938 38.769531 L 18.824219 38.867188 L 18.058594 41.8125 L 17.671875 41.707031 L 16.769531 38.976562 L 16.167969 41.292969 Z M 20.402344 40.945312 L 20.445312 40.589844 L 21.6875 40.746094 L 21.554688 41.867188 C 21.34375 42 21.136719 42.09375 20.921875 42.148438 C 20.710938 42.199219 20.496094 42.214844 20.28125 42.1875 C 19.992188 42.148438 19.738281 42.054688 19.519531 41.894531 C 19.296875 41.738281 19.140625 41.53125 19.050781 41.277344 C 18.957031 41.019531 18.929688 40.742188 18.964844 40.445312 C 19 40.152344 19.09375 39.886719 19.242188 39.644531 C 19.394531 39.40625 19.589844 39.234375 19.828125 39.140625 C 20.066406 39.046875 20.332031 39.015625 20.625 39.054688 C 20.835938 39.082031 21.027344 39.140625 21.1875 39.234375 C 21.351562 39.324219 21.476562 39.441406 21.558594 39.578125 C 21.640625 39.71875 21.695312 39.894531 21.722656 40.101562 L 21.359375 40.15625 C 21.332031 40 21.292969 39.871094 21.238281 39.773438 C 21.183594 39.675781 21.097656 39.59375 20.980469 39.527344 C 20.867188 39.457031 20.734375 39.414062 20.585938 39.394531 C 20.410156 39.375 20.25 39.382812 20.117188 39.421875 C 19.980469 39.460938 19.867188 39.519531 19.777344 39.601562 C 19.683594 39.683594 19.613281 39.773438 19.554688 39.878906 C 19.457031 40.054688 19.394531 40.253906 19.371094 40.472656 C 19.335938 40.742188 19.355469 40.972656 19.425781 41.167969 C 19.492188 41.359375 19.609375 41.511719 19.769531 41.621094 C 19.929688 41.730469 20.109375 41.796875 20.304688 41.824219 C 20.472656 41.84375 20.640625 41.832031 20.808594 41.785156 C 20.976562 41.738281 21.105469 41.683594 21.199219 41.617188 L 21.265625 41.054688 Z M 25.691406 38.808594 L 26.078125 38.738281 L 26.375 40.472656 C 26.425781 40.773438 26.433594 41.019531 26.394531 41.210938 C 26.359375 41.398438 26.265625 41.566406 26.113281 41.707031 C 25.957031 41.851562 25.738281 41.949219 25.460938 42 C 25.1875 42.046875 24.953125 42.042969 24.765625 41.976562 C 24.574219 41.910156 24.425781 41.792969 24.320312 41.621094 C 24.214844 41.453125 24.132812 41.207031 24.078125 40.890625 L 23.78125 39.15625 L 24.167969 39.085938 L 24.464844 40.816406 C 24.507812 41.078125 24.566406 41.265625 24.632812 41.382812 C 24.703125 41.496094 24.800781 41.578125 24.925781 41.625 C 25.050781 41.667969 25.199219 41.675781 25.363281 41.648438 C 25.648438 41.59375 25.839844 41.492188 25.9375 41.335938 C 26.035156 41.183594 26.050781 40.917969 25.988281 40.542969 Z M 27.386719 41.5625 L 26.46875 38.664062 L 26.851562 38.535156 L 29.050781 40.316406 L 28.332031 38.039062 L 28.6875 37.917969 L 29.605469 40.820312 L 29.222656 40.945312 L 27.023438 39.164062 L 27.742188 41.441406 Z M 30.421875 40.433594 L 29.21875 37.648438 L 29.578125 37.484375 L 30.78125 40.269531 Z M 32.277344 39.460938 L 29.839844 37.367188 L 30.210938 37.15625 L 31.925781 38.710938 C 32.0625 38.832031 32.1875 38.953125 32.296875 39.066406 C 32.257812 38.898438 32.226562 38.726562 32.199219 38.550781 L 31.859375 36.214844 L 32.207031 36.015625 L 32.628906 39.261719 Z M 34.066406 38.300781 L 32.242188 35.898438 L 33.929688 34.542969 L 34.144531 34.828125 L 32.765625 35.9375 L 33.324219 36.671875 L 34.617188 35.632812 L 34.828125 35.914062 L 33.539062 36.953125 L 34.160156 37.769531 L 35.59375 36.617188 L 35.808594 36.902344 Z M 36.296875 36.351562 L 34.164062 34.234375 L 35.078125 33.261719 C 35.261719 33.066406 35.417969 32.9375 35.550781 32.875 C 35.6875 32.808594 35.828125 32.796875 35.984375 32.832031 C 36.136719 32.867188 36.273438 32.941406 36.390625 33.058594 C 36.542969 33.210938 36.621094 33.386719 36.628906 33.589844 C 36.640625 33.792969 36.558594 34.015625 36.390625 34.253906 C 36.5 34.214844 36.589844 34.1875 36.660156 34.183594 C 36.816406 34.175781 36.984375 34.1875 37.171875 34.226562 L 38.109375 34.421875 L 37.765625 34.785156 L 37.050781 34.632812 C 36.84375 34.59375 36.679688 34.566406 36.558594 34.550781 C 36.441406 34.539062 36.347656 34.542969 36.28125 34.558594 C 36.210938 34.574219 36.152344 34.597656 36.097656 34.632812 C 36.0625 34.660156 36.007812 34.710938 35.9375 34.785156 L 35.621094 35.121094 L 36.566406 36.0625 Z M 35.378906 34.878906 L 35.960938 34.257812 C 36.085938 34.125 36.171875 34.007812 36.214844 33.90625 C 36.257812 33.804688 36.269531 33.703125 36.246094 33.605469 C 36.222656 33.511719 36.179688 33.425781 36.109375 33.359375 C 36.007812 33.257812 35.890625 33.214844 35.753906 33.226562 C 35.621094 33.234375 35.476562 33.324219 35.324219 33.484375 L 34.671875 34.179688 Z M 37.566406 33.476562 L 37.757812 33.152344 C 37.886719 33.226562 38.007812 33.265625 38.125 33.269531 C 38.238281 33.273438 38.359375 33.238281 38.484375 33.160156 C 38.613281 33.085938 38.722656 32.976562 38.824219 32.835938 C 38.910156 32.710938 38.96875 32.585938 39.003906 32.464844 C 39.035156 32.34375 39.035156 32.234375 39.003906 32.140625 C 38.972656 32.046875 38.921875 31.972656 38.847656 31.917969 C 38.773438 31.863281 38.691406 31.835938 38.605469 31.839844 C 38.515625 31.839844 38.417969 31.878906 38.308594 31.953125 C 38.234375 32.003906 38.09375 32.121094 37.878906 32.304688 C 37.667969 32.492188 37.503906 32.617188 37.394531 32.671875 C 37.25 32.746094 37.113281 32.777344 36.984375 32.769531 C 36.855469 32.757812 36.738281 32.714844 36.625 32.632812 C 36.503906 32.539062 36.417969 32.421875 36.363281 32.273438 C 36.308594 32.121094 36.300781 31.957031 36.339844 31.78125 C 36.382812 31.605469 36.460938 31.433594 36.578125 31.269531 C 36.707031 31.085938 36.851562 30.945312 37.003906 30.847656 C 37.160156 30.753906 37.320312 30.707031 37.484375 30.714844 C 37.648438 30.722656 37.804688 30.777344 37.949219 30.878906 L 37.75 31.207031 C 37.585938 31.109375 37.433594 31.082031 37.285156 31.121094 C 37.140625 31.160156 37 31.273438 36.867188 31.464844 C 36.726562 31.660156 36.660156 31.832031 36.667969 31.976562 C 36.675781 32.117188 36.726562 32.226562 36.828125 32.300781 C 36.914062 32.363281 37.007812 32.386719 37.105469 32.363281 C 37.207031 32.34375 37.378906 32.222656 37.625 32 C 37.871094 31.777344 38.050781 31.632812 38.164062 31.566406 C 38.328125 31.472656 38.484375 31.425781 38.632812 31.433594 C 38.777344 31.4375 38.917969 31.488281 39.042969 31.585938 C 39.171875 31.679688 39.265625 31.808594 39.324219 31.96875 C 39.382812 32.125 39.394531 32.300781 39.359375 32.488281 C 39.324219 32.675781 39.242188 32.855469 39.117188 33.03125 C 38.960938 33.253906 38.796875 33.417969 38.628906 33.523438 C 38.457031 33.625 38.28125 33.675781 38.09375 33.664062 C 37.90625 33.65625 37.730469 33.59375 37.566406 33.476562 Z M 40.019531 31.351562 L 37.453125 29.828125 L 37.648438 29.476562 L 40.214844 31.003906 Z M 40.929688 29.460938 L 38.5625 28.324219 L 38.148438 29.234375 L 37.832031 29.082031 L 38.824219 26.890625 L 39.140625 27.042969 L 38.726562 27.957031 L 41.09375 29.09375 Z M 41.871094 26.550781 L 40.664062 26.195312 L 38.710938 26.839844 L 38.839844 26.367188 L 39.859375 26.042969 C 40.050781 25.984375 40.238281 25.933594 40.425781 25.886719 C 40.300781 25.757812 40.164062 25.601562 40.011719 25.421875 L 39.332031 24.605469 L 39.457031 24.152344 L 40.773438 25.808594 L 41.980469 26.164062 Z M 41.871094 26.550781 "/>
<path fill-rule="evenodd" fill="rgb(13.725281%, 9.803772%, 8.627319%)" fill-opacity="1" d="M 17.203125 35.179688 L 16.71875 35.179688 L 16.71875 32 C 16.601562 32.113281 16.449219 32.230469 16.257812 32.34375 C 16.066406 32.457031 15.898438 32.542969 15.746094 32.601562 L 15.746094 32.121094 C 16.019531 31.988281 16.253906 31.828125 16.457031 31.640625 C 16.660156 31.453125 16.804688 31.273438 16.890625 31.097656 L 17.203125 31.097656 Z M 18.824219 34.242188 L 19.289062 34.199219 C 19.328125 34.421875 19.40625 34.585938 19.515625 34.6875 C 19.628906 34.789062 19.769531 34.839844 19.945312 34.839844 C 20.09375 34.839844 20.222656 34.804688 20.335938 34.734375 C 20.449219 34.664062 20.539062 34.570312 20.613281 34.453125 C 20.683594 34.335938 20.746094 34.175781 20.792969 33.976562 C 20.839844 33.777344 20.867188 33.574219 20.867188 33.367188 C 20.867188 33.347656 20.863281 33.3125 20.863281 33.269531 C 20.765625 33.425781 20.632812 33.554688 20.464844 33.652344 C 20.296875 33.753906 20.117188 33.804688 19.921875 33.804688 C 19.59375 33.804688 19.316406 33.679688 19.089844 33.4375 C 18.863281 33.191406 18.75 32.871094 18.75 32.472656 C 18.75 32.058594 18.867188 31.726562 19.105469 31.476562 C 19.339844 31.222656 19.636719 31.097656 19.992188 31.097656 C 20.25 31.097656 20.484375 31.167969 20.699219 31.3125 C 20.910156 31.453125 21.070312 31.65625 21.183594 31.921875 C 21.292969 32.183594 21.347656 32.566406 21.347656 33.066406 C 21.347656 33.585938 21.292969 34 21.183594 34.304688 C 21.074219 34.613281 20.910156 34.847656 20.695312 35.007812 C 20.476562 35.171875 20.222656 35.25 19.933594 35.25 C 19.625 35.25 19.371094 35.164062 19.175781 34.984375 C 18.980469 34.808594 18.863281 34.5625 18.824219 34.242188 Z M 20.808594 32.445312 C 20.808594 32.160156 20.734375 31.933594 20.585938 31.765625 C 20.4375 31.597656 20.261719 31.511719 20.050781 31.511719 C 19.835938 31.511719 19.648438 31.601562 19.488281 31.785156 C 19.328125 31.964844 19.25 32.199219 19.25 32.488281 C 19.25 32.746094 19.324219 32.957031 19.476562 33.117188 C 19.628906 33.28125 19.816406 33.363281 20.039062 33.363281 C 20.261719 33.363281 20.449219 33.28125 20.589844 33.117188 C 20.738281 32.957031 20.808594 32.734375 20.808594 32.445312 Z M 22.125 33.175781 C 22.125 32.695312 22.175781 32.308594 22.269531 32.015625 C 22.367188 31.722656 22.507812 31.496094 22.699219 31.335938 C 22.886719 31.175781 23.125 31.097656 23.414062 31.097656 C 23.625 31.097656 23.8125 31.140625 23.972656 31.230469 C 24.132812 31.316406 24.261719 31.445312 24.367188 31.609375 C 24.472656 31.777344 24.554688 31.976562 24.613281 32.214844 C 24.671875 32.453125 24.703125 32.773438 24.703125 33.175781 C 24.703125 33.652344 24.652344 34.039062 24.558594 34.332031 C 24.464844 34.625 24.320312 34.851562 24.132812 35.011719 C 23.941406 35.171875 23.703125 35.25 23.414062 35.25 C 23.03125 35.25 22.734375 35.109375 22.515625 34.828125 C 22.257812 34.492188 22.125 33.941406 22.125 33.175781 Z M 22.625 33.175781 C 22.625 33.84375 22.699219 34.289062 22.851562 34.507812 C 23.003906 34.730469 23.191406 34.839844 23.414062 34.839844 C 23.636719 34.839844 23.824219 34.730469 23.976562 34.507812 C 24.125 34.285156 24.203125 33.84375 24.203125 33.175781 C 24.203125 32.507812 24.125 32.0625 23.976562 31.84375 C 23.824219 31.621094 23.636719 31.511719 23.410156 31.511719 C 23.183594 31.511719 23.007812 31.609375 22.875 31.804688 C 22.707031 32.050781 22.625 32.507812 22.625 33.175781 Z M 27.328125 35.179688 L 26.84375 35.179688 L 26.84375 32 C 26.726562 32.113281 26.574219 32.230469 26.382812 32.34375 C 26.195312 32.457031 26.023438 32.542969 25.871094 32.601562 L 25.871094 32.121094 C 26.144531 31.988281 26.382812 31.828125 26.585938 31.640625 C 26.785156 31.453125 26.929688 31.273438 27.015625 31.097656 L 27.328125 31.097656 Z M 27.328125 35.179688 "/>
</svg>
